<svg xmlns="http://www.w3.org/2000/svg" xmlns:xlink="http://www.w3.org/1999/xlink" width="1080" viewBox="0 0 810 809.999993" height="1080" preserveAspectRatio="xMidYMid meet"><defs><clipPath id="id1"><path d="M 392 231 L 676.988281 231 L 676.988281 615 L 392 615 Z M 392 231 " clip-rule="nonzero"></path></clipPath><clipPath id="id2"><path d="M 133.238281 308 L 409 308 L 409 584 L 133.238281 584 Z M 133.238281 308 " clip-rule="nonzero"></path></clipPath></defs><path fill="#ea4335" d="M 494.714844 298.855469 L 541.898438 251.65625 L 545.058594 231.78125 C 459.066406 153.574219 322.363281 162.441406 244.832031 250.285156 C 223.300781 274.683594 207.324219 305.101562 198.804688 336.511719 L 215.707031 334.128906 L 310.089844 318.5625 L 317.375 311.109375 C 359.347656 264.996094 430.351562 258.789062 478.828125 298.027344 Z M 494.714844 298.855469 " fill-opacity="1" fill-rule="nonzero"></path><g clip-path="url(#id1)"><path fill="#4285f4" d="M 609.125 335.121094 C 598.289062 295.171875 576.023438 259.253906 545.058594 231.78125 L 478.828125 298.027344 C 506.78125 320.882812 522.730469 355.316406 522.027344 391.441406 L 522.027344 403.191406 C 554.601562 403.191406 580.984375 429.574219 580.984375 462.15625 C 580.984375 494.714844 554.601562 520.441406 522.027344 520.441406 L 403.96875 520.441406 L 392.390625 533.019531 L 392.390625 603.734375 L 403.96875 614.847656 L 522.027344 614.847656 C 606.707031 615.503906 675.90625 548.035156 676.566406 463.34375 C 676.96875 412.015625 651.648438 363.882812 609.125 335.121094 " fill-opacity="1" fill-rule="nonzero"></path></g><path fill="#34a853" d="M 286.078125 614.847656 L 403.96875 614.847656 L 403.96875 520.441406 L 286.078125 520.441406 C 277.679688 520.441406 269.542969 518.636719 261.90625 515.136719 L 245.179688 520.269531 L 197.65625 567.464844 L 193.515625 583.542969 C 220.167969 603.671875 252.683594 614.976562 286.078125 614.847656 " fill-opacity="1" fill-rule="nonzero"></path><g clip-path="url(#id2)"><path fill="#fbbc05" d="M 286.078125 308.625 C 201.394531 309.132812 133.160156 378.199219 133.664062 462.898438 C 133.949219 510.195312 156.03125 554.71875 193.515625 583.542969 L 261.90625 515.136719 C 232.234375 501.734375 219.050781 466.820312 232.453125 437.148438 C 245.855469 407.476562 280.777344 394.28125 310.445312 407.6875 C 323.515625 413.582031 333.988281 424.0625 339.894531 437.148438 L 408.273438 368.742188 C 379.175781 330.699219 333.96875 308.453125 286.078125 308.625 " fill-opacity="1" fill-rule="nonzero"></path></g></svg>